# Blender v2.79 (sub 0) OBJ File: 'concept-20190625.blend'
# www.blender.org
mtllib Lava.mtl
o Circle.002
v 0.000000 5.993731 -2.871346
v -0.560172 5.993731 -2.816174
v -1.098817 5.993731 -2.652778
v -1.595235 5.993731 -2.387437
v -2.030348 5.993731 -2.030348
v -2.387437 5.993731 -1.595234
v -2.652778 5.993731 -1.098816
v -2.816174 5.993731 -0.560172
v -2.871346 5.993731 0.000000
v -2.816174 5.993731 0.560172
v -2.652778 5.993731 1.098817
v -2.387437 5.993731 1.595235
v -2.030348 5.993731 2.030349
v -1.595234 5.993731 2.387438
v -1.098816 5.993731 2.652779
v -0.560171 5.993731 2.816175
v 0.000001 5.993731 2.871347
v 0.560173 5.993731 2.816175
v 1.098818 5.993731 2.652778
v 1.595236 5.993731 2.387437
v 2.030350 5.993731 2.030348
v 2.387439 5.993731 1.595234
v 2.652780 5.993731 1.098815
v 2.816175 5.993731 0.560170
v 2.871347 5.993731 -0.000002
v 2.816174 5.993731 -0.560174
v 2.652777 5.993731 -1.098819
v 2.387436 5.993731 -1.595237
v 2.030346 5.993731 -2.030351
v 1.595232 5.993731 -2.387439
v 1.098813 5.993731 -2.652780
v 0.560168 5.993731 -2.816175
v -0.560172 6.233626 -2.816174
v 0.000000 6.233626 -2.871346
v -1.098817 6.233626 -2.652778
v -1.595235 6.233626 -2.387437
v -2.030348 6.233626 -2.030348
v -2.387437 6.233626 -1.595234
v -2.652778 6.233626 -1.098816
v -2.816174 6.233626 -0.560172
v -2.871346 6.233626 0.000000
v -2.816174 6.233626 0.560172
v -2.652778 6.233626 1.098817
v -2.387437 6.233626 1.595235
v -2.030348 6.233626 2.030349
v -1.595234 6.233626 2.387438
v -1.098816 6.233626 2.652779
v -0.560171 6.233626 2.816175
v 0.000001 6.233626 2.871347
v 0.560173 6.233626 2.816175
v 1.098818 6.233626 2.652778
v 1.595236 6.233626 2.387437
v 2.030350 6.233626 2.030348
v 2.387439 6.233626 1.595234
v 2.652780 6.233626 1.098815
v 2.816175 6.233626 0.560170
v 2.871347 6.233626 -0.000002
v 2.816174 6.233626 -0.560174
v 2.652777 6.233626 -1.098819
v 2.387436 6.233626 -1.595237
v 2.030346 6.233626 -2.030351
v 1.595232 6.233626 -2.387439
v 1.098813 6.233626 -2.652780
v 0.560168 6.233626 -2.816175
vn 0.0000 -1.0000 -0.0000
vn 0.0000 1.0000 -0.0000
vn -0.4714 0.0000 0.8819
vn -0.0980 0.0000 -0.9952
vn 0.7730 0.0000 -0.6344
vn -0.2903 0.0000 0.9569
vn -0.2903 0.0000 -0.9569
vn 0.6344 0.0000 -0.7730
vn -0.0980 0.0000 0.9952
vn -0.4714 0.0000 -0.8819
vn 0.4714 0.0000 -0.8819
vn 0.0980 0.0000 0.9952
vn -0.6344 0.0000 -0.7730
vn 0.2903 0.0000 -0.9569
vn 0.2903 0.0000 0.9569
vn -0.7730 0.0000 -0.6344
vn 0.0980 0.0000 -0.9952
vn 0.4714 0.0000 0.8819
vn -0.8819 0.0000 -0.4714
vn 0.6344 0.0000 0.7730
vn -0.9569 0.0000 -0.2903
vn 0.7730 0.0000 0.6344
vn -0.9952 0.0000 -0.0980
vn 0.8819 0.0000 0.4714
vn -0.9952 0.0000 0.0980
vn 0.9569 0.0000 0.2903
vn -0.9569 0.0000 0.2903
vn 0.9952 0.0000 0.0980
vn -0.8819 0.0000 0.4714
vn 0.9952 0.0000 -0.0980
vn -0.7730 0.0000 0.6344
vn 0.9569 0.0000 -0.2903
vn -0.6344 0.0000 0.7730
vn 0.8819 0.0000 -0.4714
usemtl Material.004
s off
f 2//1 1//1 32//1 31//1 30//1 29//1 28//1 27//1 26//1 25//1 24//1 23//1 22//1 21//1 20//1 19//1 18//1 17//1 16//1 15//1 14//1 13//1 12//1 11//1 10//1 9//1 8//1 7//1 6//1 5//1 4//1 3//1
f 33//2 35//2 36//2 37//2 38//2 39//2 40//2 41//2 42//2 43//2 44//2 45//2 46//2 47//2 48//2 49//2 50//2 51//2 52//2 53//2 54//2 55//2 56//2 57//2 58//2 59//2 60//2 61//2 62//2 63//2 64//2 34//2
f 14//3 15//3 47//3 46//3
f 1//4 2//4 33//4 34//4
f 28//5 29//5 61//5 60//5
f 15//6 16//6 48//6 47//6
f 2//7 3//7 35//7 33//7
f 29//8 30//8 62//8 61//8
f 16//9 17//9 49//9 48//9
f 3//10 4//10 36//10 35//10
f 30//11 31//11 63//11 62//11
f 17//12 18//12 50//12 49//12
f 4//13 5//13 37//13 36//13
f 31//14 32//14 64//14 63//14
f 18//15 19//15 51//15 50//15
f 5//16 6//16 38//16 37//16
f 32//17 1//17 34//17 64//17
f 19//18 20//18 52//18 51//18
f 6//19 7//19 39//19 38//19
f 20//20 21//20 53//20 52//20
f 7//21 8//21 40//21 39//21
f 21//22 22//22 54//22 53//22
f 8//23 9//23 41//23 40//23
f 22//24 23//24 55//24 54//24
f 9//25 10//25 42//25 41//25
f 23//26 24//26 56//26 55//26
f 10//27 11//27 43//27 42//27
f 24//28 25//28 57//28 56//28
f 11//29 12//29 44//29 43//29
f 25//30 26//30 58//30 57//30
f 12//31 13//31 45//31 44//31
f 26//32 27//32 59//32 58//32
f 13//33 14//33 46//33 45//33
f 27//34 28//34 60//34 59//34
